<svg width="44" height="44" viewBox="0 0 44 44" fill="none" xmlns="http://www.w3.org/2000/svg">
<path d="M43.5 22C43.5 33.8741 33.8741 43.5 22 43.5C10.1259 43.5 0.5 33.8741 0.5 22C0.5 10.1259 10.1259 0.5 22 0.5C33.8741 0.5 43.5 10.1259 43.5 22Z" fill="white" stroke="#E5E5E5"/>
<path d="M13.526 35.108C13.126 35.108 12.784 35.04 12.5 34.904C12.22 34.764 11.992 34.582 11.816 34.358C11.644 34.13 11.516 33.886 11.432 33.626C11.352 33.362 11.312 33.108 11.312 32.864V32.732C11.312 32.464 11.354 32.198 11.438 31.934C11.522 31.67 11.65 31.43 11.822 31.214C11.998 30.998 12.224 30.824 12.5 30.692C12.78 30.56 13.11 30.494 13.49 30.494C13.886 30.494 14.228 30.564 14.516 30.704C14.804 30.844 15.032 31.04 15.2 31.292C15.372 31.54 15.474 31.834 15.506 32.174H14.78C14.748 31.95 14.672 31.764 14.552 31.616C14.436 31.464 14.286 31.35 14.102 31.274C13.922 31.198 13.718 31.16 13.49 31.16C13.254 31.16 13.044 31.202 12.86 31.286C12.68 31.37 12.53 31.486 12.41 31.634C12.29 31.782 12.198 31.956 12.134 32.156C12.074 32.352 12.044 32.568 12.044 32.804C12.044 33.028 12.074 33.24 12.134 33.44C12.198 33.636 12.292 33.81 12.416 33.962C12.54 34.114 12.694 34.232 12.878 34.316C13.066 34.4 13.282 34.442 13.526 34.442C13.878 34.442 14.174 34.356 14.414 34.184C14.654 34.008 14.8 33.758 14.852 33.434H15.584C15.544 33.742 15.44 34.024 15.272 34.28C15.104 34.532 14.874 34.734 14.582 34.886C14.29 35.034 13.938 35.108 13.526 35.108ZM16.3693 35V30.62H17.5452L19.5793 34.382H19.7773L19.6573 34.49V30.62H20.3413V35H19.1533L17.1193 31.238H16.9213L17.0413 31.13V35H16.3693ZM22.9656 35.108C22.6816 35.108 22.4316 35.062 22.2156 34.97C21.9996 34.874 21.8176 34.748 21.6696 34.592C21.5216 34.436 21.4096 34.26 21.3336 34.064C21.2576 33.864 21.2196 33.658 21.2196 33.446V33.326C21.2196 33.114 21.2576 32.908 21.3336 32.708C21.4136 32.508 21.5276 32.33 21.6756 32.174C21.8276 32.014 22.0116 31.888 22.2276 31.796C22.4436 31.704 22.6896 31.658 22.9656 31.658C23.2416 31.658 23.4856 31.704 23.6976 31.796C23.9136 31.888 24.0976 32.014 24.2496 32.174C24.4016 32.33 24.5156 32.508 24.5916 32.708C24.6716 32.908 24.7116 33.114 24.7116 33.326V33.446C24.7116 33.658 24.6736 33.864 24.5976 34.064C24.5216 34.26 24.4096 34.436 24.2616 34.592C24.1136 34.748 23.9316 34.874 23.7156 34.97C23.4996 35.062 23.2496 35.108 22.9656 35.108ZM22.9656 34.496C23.1856 34.496 23.3736 34.448 23.5296 34.352C23.6856 34.252 23.8036 34.118 23.8836 33.95C23.9676 33.782 24.0096 33.594 24.0096 33.386C24.0096 33.174 23.9676 32.984 23.8836 32.816C23.7996 32.648 23.6796 32.516 23.5236 32.42C23.3676 32.32 23.1816 32.27 22.9656 32.27C22.7496 32.27 22.5636 32.32 22.4076 32.42C22.2516 32.516 22.1316 32.648 22.0476 32.816C21.9636 32.984 21.9216 33.174 21.9216 33.386C21.9216 33.594 21.9616 33.782 22.0416 33.95C22.1256 34.118 22.2456 34.252 22.4016 34.352C22.5576 34.448 22.7456 34.496 22.9656 34.496ZM26.858 35.108C26.626 35.108 26.414 35.066 26.222 34.982C26.034 34.898 25.868 34.78 25.724 34.628C25.584 34.476 25.476 34.3 25.4 34.1C25.324 33.9 25.286 33.682 25.286 33.446V33.332C25.286 33.1 25.322 32.884 25.394 32.684C25.47 32.48 25.576 32.302 25.712 32.15C25.848 31.998 26.01 31.88 26.198 31.796C26.39 31.708 26.602 31.664 26.834 31.664C27.082 31.664 27.304 31.718 27.5 31.826C27.7 31.93 27.86 32.092 27.98 32.312C28.104 32.528 28.172 32.804 28.184 33.14L27.944 32.81V30.62H28.646V35H28.088V33.596H28.244C28.232 33.944 28.16 34.23 28.028 34.454C27.9 34.678 27.734 34.844 27.53 34.952C27.326 35.056 27.102 35.108 26.858 35.108ZM26.99 34.502C27.17 34.502 27.332 34.462 27.476 34.382C27.624 34.302 27.742 34.186 27.83 34.034C27.922 33.878 27.968 33.696 27.968 33.488V33.23C27.968 33.026 27.922 32.852 27.83 32.708C27.738 32.564 27.618 32.454 27.47 32.378C27.322 32.302 27.16 32.264 26.984 32.264C26.788 32.264 26.614 32.312 26.462 32.408C26.314 32.5 26.198 32.63 26.114 32.798C26.03 32.966 25.988 33.162 25.988 33.386C25.988 33.614 26.03 33.812 26.114 33.98C26.202 34.148 26.322 34.278 26.474 34.37C26.626 34.458 26.798 34.502 26.99 34.502ZM31.0901 35.108C30.8101 35.108 30.5661 35.06 30.3581 34.964C30.1501 34.868 29.9801 34.742 29.8481 34.586C29.7161 34.426 29.6161 34.248 29.5481 34.052C29.4841 33.852 29.4521 33.648 29.4521 33.44V33.326C29.4521 33.114 29.4841 32.91 29.5481 32.714C29.6161 32.514 29.7161 32.336 29.8481 32.18C29.9801 32.02 30.1461 31.894 30.3461 31.802C30.5501 31.706 30.7861 31.658 31.0541 31.658C31.4021 31.658 31.6921 31.734 31.9241 31.886C32.1561 32.038 32.3301 32.236 32.4461 32.48C32.5621 32.72 32.6201 32.98 32.6201 33.26V33.542H29.7521V33.068H32.1461L31.9541 33.308C31.9541 33.092 31.9201 32.906 31.8521 32.75C31.7841 32.59 31.6841 32.468 31.5521 32.384C31.4201 32.296 31.2541 32.252 31.0541 32.252C30.8461 32.252 30.6721 32.3 30.5321 32.396C30.3921 32.492 30.2881 32.624 30.2201 32.792C30.1521 32.96 30.1181 33.158 30.1181 33.386C30.1181 33.602 30.1521 33.796 30.2201 33.968C30.2881 34.136 30.3941 34.27 30.5381 34.37C30.6821 34.466 30.8661 34.514 31.0901 34.514C31.3141 34.514 31.4981 34.466 31.6421 34.37C31.7861 34.27 31.8741 34.154 31.9061 34.022H32.5601C32.5161 34.242 32.4261 34.434 32.2901 34.598C32.1581 34.762 31.9901 34.888 31.7861 34.976C31.5821 35.064 31.3501 35.108 31.0901 35.108Z" fill="black"/>
<path d="M12 8.13333L19.5667 17.8667L18.4667 14.6333L12 8.13333Z" fill="black"/>
<path d="M18.6333 14.4667L21.8667 15.5667L12.1333 8L18.6333 14.4667Z" fill="black"/>
<path d="M21.9667 15.8L18.7333 14.7333L19.8 17.9667L21.9667 15.8Z" fill="black"/>
<path d="M12.1333 28L21.8667 20.4333L18.6333 21.5333L12.1333 28Z" fill="black"/>
<path d="M18.4667 21.3667L19.5667 18.1333L12 27.8667L18.4667 21.3667Z" fill="black"/>
<path d="M19.8 18.0333L18.7333 21.2667L21.9667 20.2L19.8 18.0333Z" fill="black"/>
<path d="M25.3667 14.4667L22.1333 15.5667L31.8667 8L25.3667 14.4667Z" fill="black"/>
<path d="M25.5333 14.6333L24.4333 17.8667L32 8.13333L25.5333 14.6333Z" fill="black"/>
<path d="M24.2 17.9667L25.2667 14.7333L22.0333 15.8L24.2 17.9667Z" fill="black"/>
<path d="M32 27.8667L24.4333 18.1333L25.5333 21.3667L32 27.8667Z" fill="black"/>
<path d="M25.3667 21.5333L22.1333 20.4333L31.8667 28L25.3667 21.5333Z" fill="black"/>
<path d="M22.0333 20.2L25.2667 21.2667L24.2 18.0333L22.0333 20.2Z" fill="black"/>
</svg>
